{"title":"Formula 1 2013 Spanish Grand Prix - Main Race BBC","uid":8466995,"size":1453603009,"categoryP":"video","categoryS":"tv_shows","magnet":"?xt=urn:btih:ccdae767a518ee5a89bbc75fbd0c1a4a37cff408&amp;dn=Formula+1+2013+Spanish+Grand+Prix+-+Main+Race+BBC&amp;tr=udp%3A%2F%2Ftracker.openbittorrent.com%3A80&amp;tr=udp%3A%2F%2Fopen.demonii.com%3A1337&amp;tr=udp%3A%2F%2Ftracker.coppersurfer.tk%3A6969&amp;tr=udp%3A%2F%2Fexodus.desync.com%3A6969","seeders":0,"leechers":0,"uploader":"IAMH67","files":6,"time":1368382055,"description":"MOTORING: F1: Grand Prix\n\nOn: BBC 1    \n\n\nDate: Sunday 12th May 2013 (Already shown)\n \n\nLength : From race start and post race show \n\n Spain.\n\n\n Suzi Perry hosts live coverage of the Spanish Grand Prix. The Circuit de Catalunya has not been especially kind to British drivers over the years. The last 18 races there have produced just one British winner - Jenson Button in 2009. Lewis Hamilton never won in Spain during his time with McLaren, so the 28-year-old will be hoping for a change in luck with new team Mercedes. However, the man to beat could once again be German star Sebastian Vettel. The Red Bull driver topped the podium in Barcelona in 2011, and is targeting a fourth successive world title this season.\n\n\n Format            : AVI at 1 342 Kbps\n\n Video #0          : MPEG-4 Visual at 1 205 Kbps\n Aspect            : 608 x 336 (1.810) at 25.000 fps\n\n Audio #0          : MPEG Audio at 128 Kbps\n Infos             : 2 channels, 48.0 KHz\n\nTechnical Information :\n\nVideo\nID                             : 0\nFormat                         : MPEG-4 Visual\nFormat profile                 : Advanced Simple@L5\nFormat settings, BVOP          : 2\nFormat settings, QPel          : No\nFormat settings, GMC           : No warppoints\nFormat settings, Matrix        : Default (H.263)\nMuxing mode                    : Packed bitstream\nCodec ID                       : XVID\nCodec ID/Hint                  : XviD\nBit rate                       : 1 426 Kbps\nWidth                          : 608 pixels\nHeight                         : 336 pixels\nDisplay aspect ratio           : 16:9\nFrame rate                     : 25.000 fps\nColor space                    : YUV\nChroma subsampling             : 4:2:0\nBit depth                      : 8 bits\nScan type                      : Progressive\nCompression mode               : Lossy\nBits/(Pixel*Frame)             : 0.279\nStream size                    : 423 MiB (91%)\nWriting library                : XviD 1.2.1 (UTC 2008-12-04)\n\nAudio\nID                             : 1\nFormat                         : MPEG Audio\nFormat version                 : Version 1\nFormat profile                 : Layer 3\nMode                           : Joint stereo\nMode extension                 : MS Stereo\nCodec ID                       : 55\nCodec ID/Hint                  : MP3\n\nBit rate mode                  : Constant\nBit rate                       : 128 Kbps\nChannel(s)                     : 2 channels\nSampling rate                  : 48.0 KHz\nCompression mode               : Lossy\nStream size                    : 38.0 MiB (8%)\nAlignment                      : Aligned on interleaves\nInterleave, duration           : 40 ms (1.00 video frame)\nInterleave, preload duration   : 504 ms\n\n\nScreens : \n &lt;a href=&quot;\nhttp://i.imgur.com/8zr3tnG.jpg&quot; rel=&quot;nofollow&quot; target=&quot;_NEW&quot;&gt;\nhttp://i.imgur.com/8zr3tnG.jpg&lt;/a&gt;\n &lt;a href=&quot;\nhttp://i.imgur.com/hV0aCJa.jpg&quot; rel=&quot;nofollow&quot; target=&quot;_NEW&quot;&gt;\nhttp://i.imgur.com/hV0aCJa.jpg&lt;/a&gt;\n &lt;a href=&quot;\nhttp://i.imgur.com/4xWnm4J.jpg&quot; rel=&quot;nofollow&quot; target=&quot;_NEW&quot;&gt;\nhttp://i.imgur.com/4xWnm4J.jpg&lt;/a&gt;","torrent":{"xt":"urn:btih:ccdae767a518ee5a89bbc75fbd0c1a4a37cff408","amp;dn":"Formula+1+2013+Spanish+Grand+Prix+-+Main+Race+BBC","amp;tr":["udp%3A%2F%2Ftracker.openbittorrent.com%3A80","udp%3A%2F%2Fopen.demonii.com%3A1337","udp%3A%2F%2Ftracker.coppersurfer.tk%3A6969","udp%3A%2F%2Fexodus.desync.com%3A6969"],"infoHash":"ccdae767a518ee5a89bbc75fbd0c1a4a37cff408","infoHashBuffer":{"type":"Buffer","data":[204,218,231,103,165,24,238,90,137,187,199,95,189,12,26,74,55,207,244,8]},"announce":[],"urlList":[]}}